<?xml version="1.0" standalone="no"?>
<!DOCTYPE svg PUBLIC "-//W3C//DTD SVG 20010904//EN"
 "http://www.w3.org/TR/2001/REC-SVG-20010904/DTD/svg10.dtd">
<svg version="1.0" xmlns="http://www.w3.org/2000/svg"
 width="492.000000pt" height="200.000000pt" viewBox="0 0 492.000000 200.000000"
 preserveAspectRatio="xMidYMid meet">

<g transform="translate(0.000000,200.000000) scale(0.100000,-0.100000)"
fill="#000000" stroke="none">
<path d="M842 1840 c-23 -5 -64 -21 -91 -36 -86 -46 -114 -85 -174 -239 -74
-190 -72 -181 -45 -198 13 -8 48 -18 78 -22 30 -3 75 -15 100 -26 166 -73 175
-239 21 -381 -96 -89 -201 -136 -362 -162 -60 -10 -99 -21 -111 -33 -26 -27
-138 -306 -138 -346 0 -41 27 -79 74 -101 31 -14 203 -16 1922 -16 2053 -1
1929 -4 2029 54 24 15 55 41 69 59 28 36 136 304 136 336 0 25 -28 41 -70 41
-41 0 -133 33 -167 60 -68 52 -93 151 -59 231 57 135 235 250 441 283 46 7 94
20 107 28 25 17 149 314 148 356 0 44 -26 76 -76 96 -48 19 -95 20 -1919 22
-1049 1 -1889 -1 -1913 -6z m2868 -128 c0 -57 112 -55 159 2 12 14 56 16 341
16 305 0 329 -1 351 -19 l23 -18 -48 -120 -49 -120 -82 -21 c-167 -41 -279
-100 -390 -204 -93 -88 -138 -171 -143 -270 -5 -74 6 -112 45 -164 42 -57 96
-85 240 -129 15 -5 -70 -221 -98 -250 -19 -19 -34 -20 -364 -23 l-344 -2 -13
27 c-12 25 -19 28 -66 28 -42 -1 -57 -6 -80 -28 l-28 -27 -1418 0 c-958 0
-1424 3 -1437 10 -10 6 -19 19 -19 30 0 19 77 217 90 233 4 5 41 15 81 24 293
60 534 267 547 469 8 117 -37 192 -147 247 -39 20 -92 39 -116 43 -25 3 -45 9
-45 11 0 3 19 53 41 112 26 66 52 116 71 134 l28 27 1435 0 c1375 0 1435 -1
1435 -18z"/>
<path d="M3653 1523 c-24 -12 -38 -32 -61 -85 -16 -39 -27 -81 -24 -94 8 -45
104 -42 145 4 26 30 64 135 57 162 -5 21 -12 25 -45 27 -22 1 -54 -5 -72 -14z"/>
<path d="M3508 1156 c-30 -17 -44 -35 -67 -90 -34 -82 -30 -107 20 -117 56
-12 105 21 136 89 23 51 35 115 23 125 -3 2 -21 7 -40 10 -25 3 -46 -1 -72
-17z"/>
<path d="M3359 790 c-29 -15 -40 -31 -63 -90 -23 -59 -26 -76 -17 -96 8 -19
18 -24 47 -24 61 0 98 31 129 107 29 74 27 107 -7 117 -35 9 -50 7 -89 -14z"/>
</g>
</svg>
