<?xml version="1.0" standalone="no"?>
<!DOCTYPE svg PUBLIC "-//W3C//DTD SVG 20010904//EN"
 "http://www.w3.org/TR/2001/REC-SVG-20010904/DTD/svg10.dtd">
<svg version="1.0" xmlns="http://www.w3.org/2000/svg"
 width="1210.000000pt" height="639.000000pt" viewBox="0 0 1210.000000 639.000000"
 preserveAspectRatio="xMidYMid meet">

<g transform="translate(0.000000,639.000000) scale(0.100000,-0.100000)"
fill="#000000" stroke="none">
<path d="M3647 3655 l-35 -104 128 -3 129 -3 -103 -305 c-56 -168 -106 -314
-111 -324 -8 -18 -5 -19 55 -13 35 4 93 7 129 7 l66 0 59 193 c33 105 80 249
104 320 l45 127 160 0 c126 0 157 -3 149 -12 -5 -7 -32 -88 -60 -179 -45 -144
-124 -378 -147 -431 -7 -17 3 -18 117 -18 l124 0 34 118 c50 177 120 392 141
437 18 40 89 266 89 285 0 7 -176 10 -519 10 l-519 0 -35 -105z"/>
<path d="M4782 3388 c27 -78 47 -145 46 -149 -2 -5 -72 -80 -156 -169 l-154
-160 126 0 125 0 87 101 c99 113 94 114 114 -14 l13 -77 134 0 c115 0 134 2
129 15 -3 8 -26 80 -52 161 l-47 146 144 144 144 145 -124 -3 -124 -3 -71 -82
c-39 -44 -74 -82 -77 -82 -3 -1 -12 36 -20 82 l-14 82 -136 3 -136 3 49 -143z"/>
<path d="M6590 3486 c0 -2 27 -55 61 -117 68 -127 67 -119 44 -299 -8 -68 -15
-128 -15 -132 0 -4 38 -8 84 -8 l83 0 19 155 18 156 93 120 c51 67 93 123 93
125 0 2 -37 4 -82 4 l-83 -1 -44 -55 -45 -56 -28 56 -28 56 -85 0 c-47 0 -85
-2 -85 -4z"/>
<path d="M8011 3338 c-6 -79 -14 -158 -18 -175 l-5 -33 74 0 75 0 22 158 c11
87 21 166 21 175 0 14 -12 17 -78 17 l-79 0 -12 -142z"/>
<path d="M5586 3443 c-2 -10 -8 -38 -11 -62 l-7 -44 81 5 c45 3 83 2 85 -1 5
-7 -35 -250 -57 -353 l-15 -68 89 0 c49 0 89 3 89 8 0 16 50 321 61 371 l11
53 83 -7 83 -7 7 44 c3 24 9 51 11 61 5 16 -12 17 -250 17 -234 0 -255 -1
-260 -17z"/>
<path d="M7197 3336 c-108 -39 -167 -120 -167 -228 0 -56 4 -71 29 -105 39
-53 91 -77 166 -77 188 2 310 221 198 355 -52 62 -144 84 -226 55z m93 -156
c24 -24 25 -38 4 -68 -23 -33 -50 -45 -74 -32 -33 18 -43 46 -26 79 24 45 63
54 96 21z"/>
<path d="M6240 3321 c-106 -33 -180 -125 -180 -225 0 -90 43 -147 129 -173
123 -35 261 10 317 105 74 122 46 239 -68 286 -39 17 -153 20 -198 7z m124
-117 c26 -25 30 -62 11 -110 -26 -69 -94 -95 -136 -53 -18 18 -21 30 -16 72 3
41 10 56 36 79 35 32 81 37 105 12z"/>
<path d="M7530 3211 c-17 -161 -12 -204 33 -249 28 -28 45 -36 85 -40 75 -7
114 4 161 44 60 52 72 82 91 231 l16 133 -77 0 -77 0 -12 -102 c-14 -126 -22
-152 -44 -156 -34 -7 -38 12 -27 109 7 52 14 106 17 122 l6 27 -80 0 -79 0
-13 -119z"/>
<path d="M7979 3071 c-23 -24 -29 -38 -29 -75 0 -36 5 -48 26 -65 76 -60 197
28 163 117 -14 37 -38 51 -87 52 -35 0 -49 -6 -73 -29z"/>
</g>
</svg>
